<?xml version="1.0" encoding="iso-8859-1"?>
<!-- Uploaded to: SVG Repo, www.svgrepo.com, Generator: SVG Repo Mixer Tools -->
<svg height="800px" width="800px" version="1.1" id="Layer_1" xmlns="http://www.w3.org/2000/svg" xmlns:xlink="http://www.w3.org/1999/xlink" 
	 viewBox="0 0 512 512" xml:space="preserve">
<circle style="fill:#FC6F58;" cx="256" cy="256" r="256"/>
<path style="fill:#F1543F;" d="M383.426,156.875c-0.445-0.445-35.992,21.801-58.189,35.764l-4.949-4.949
	c0,0-42.391,34.349-43.037,34.995l37.255,36.797c-7.885,3.575-16.998,7.671-20.609,9.164l-27.308-27.308
	c0,0.295-3.079,1.981-7.109,4.06l-51.474-41.886l-52.996,30.291c0,0-71.401,91.469-72.694,92.762l43.265,42.656
	c-5.725,4.334-11.517,8.745-11.945,9.173l133.43,133.43c2.967,0.102,5.942,0.172,8.933,0.172
	c131.946,0,240.562-99.828,254.478-228.073L404.942,172.558l-2.982,2.85L383.426,156.875z"/>
<path style="fill:#FFD15D;" d="M417.228,218.217l-7.525-1.948c-0.186-2.148-0.478-4.277-0.888-6.373l6.692-3.939
	c3.805-2.239,5.072-7.139,2.832-10.942l-12.466-21.175c-2.239-3.805-7.139-5.073-10.942-2.832l-6.692,3.939
	c-1.634-1.376-3.353-2.663-5.142-3.868l1.948-7.525c1.107-4.274-1.46-8.633-5.734-9.74l-23.788-6.16
	c-4.274-1.107-8.633,1.46-9.74,5.734l-1.948,7.525c-2.148,0.186-4.277,0.478-6.373,0.888l-3.939-6.692
	c-2.239-3.805-7.139-5.072-10.942-2.832l-21.176,12.466c-3.805,2.239-5.072,7.139-2.832,10.942l3.939,6.692
	c-1.376,1.634-2.663,3.353-3.868,5.141l-7.525-1.948c-4.274-1.107-8.633,1.46-9.74,5.734l-6.16,23.788
	c-1.107,4.274,1.46,8.633,5.734,9.74l7.525,1.948c0.186,2.148,0.478,4.275,0.888,6.372l-6.692,3.939
	c-3.805,2.239-5.072,7.139-2.832,10.942l12.466,21.176c2.239,3.805,7.139,5.072,10.942,2.832l6.69-3.939
	c1.634,1.376,3.355,2.663,5.142,3.87l-1.948,7.525c-1.107,4.274,1.46,8.633,5.734,9.74l23.788,6.16
	c4.274,1.107,8.633-1.46,9.74-5.734l1.948-7.525c2.148-0.186,4.277-0.478,6.373-0.888l3.939,6.692
	c2.239,3.805,7.139,5.072,10.942,2.832l21.176-12.466c3.805-2.239,5.072-7.139,2.832-10.942l-3.939-6.692
	c1.376-1.634,2.663-3.355,3.868-5.142l7.525,1.948c4.274,1.107,8.633-1.46,9.74-5.734l6.16-23.788
	C424.069,223.685,421.502,219.324,417.228,218.217z M341.468,250.968c-16.263-4.211-26.034-20.809-21.823-37.071
	s20.808-26.033,37.071-21.823c16.263,4.212,26.033,20.809,21.823,37.071S357.731,255.179,341.468,250.968z"/>
<path style="fill:#F9B54C;" d="M417.228,218.217l-7.525-1.948c-0.186-2.148-0.478-4.275-0.888-6.373l6.692-3.941
	c3.805-2.239,5.072-7.139,2.832-10.942l-12.466-21.175c-2.239-3.805-7.139-5.073-10.942-2.834l-6.692,3.939
	c-1.634-1.376-3.353-2.663-5.142-3.868l1.948-7.525c1.107-4.274-1.46-8.633-5.734-9.74l-23.788-6.16
	c-3.106-0.803-6.242,0.35-8.158,2.67v40.836c3.069-0.174,6.213,0.109,9.347,0.919c16.263,4.212,26.034,20.809,21.823,37.071
	c-3.701,14.293-16.97,23.562-31.17,22.74v43.284c2.398-0.865,4.342-2.858,5.03-5.513l1.948-7.525
	c2.148-0.186,4.277-0.478,6.373-0.888l3.939,6.692c2.239,3.805,7.139,5.072,10.942,2.834l21.176-12.464
	c3.803-2.239,5.072-7.139,2.832-10.942l-3.939-6.692c1.376-1.634,2.663-3.355,3.868-5.142l7.525,1.948
	c4.274,1.107,8.633-1.462,9.74-5.734l6.16-23.788C424.069,223.685,421.502,219.324,417.228,218.217z"/>
<path style="fill:#324A5E;" d="M273.234,273.239H262.33c-1.008-2.851-2.151-5.639-3.446-8.342l7.702-7.702
	c4.379-4.379,4.379-11.476,0-15.855l-24.373-24.371c-4.379-4.379-11.476-4.379-15.855,0l-7.702,7.702
	c-2.703-1.293-5.491-2.438-8.342-3.446v-10.904c0-6.191-5.018-11.211-11.211-11.211H164.64c-6.192,0-11.211,5.02-11.211,11.211
	v10.904c-2.851,1.008-5.639,2.153-8.342,3.446l-7.702-7.702c-4.379-4.379-11.476-4.379-15.855,0l-24.373,24.373
	c-4.379,4.379-4.379,11.476,0,15.855l7.702,7.702c-1.293,2.703-2.438,5.491-3.446,8.342H90.51c-6.192,0-11.211,5.02-11.211,11.211
	v34.468c0,6.191,5.02,11.211,11.211,11.211h10.904c1.008,2.851,2.151,5.639,3.444,8.34l-7.702,7.702
	c-4.379,4.379-4.379,11.476,0,15.855l24.373,24.373c4.379,4.379,11.476,4.379,15.855,0l7.701-7.701
	c2.703,1.293,5.491,2.438,8.344,3.446v10.904c0,6.191,5.02,11.211,11.211,11.211h34.468c6.192,0,11.211-5.02,11.211-11.211v-10.904
	c2.851-1.008,5.639-2.153,8.342-3.446l7.702,7.702c4.379,4.379,11.476,4.379,15.855,0l24.373-24.373
	c4.379-4.379,4.379-11.476,0-15.855l-7.702-7.702c1.293-2.703,2.438-5.491,3.446-8.342h10.904c6.192,0,11.211-5.02,11.211-11.211
	v-34.468C284.446,278.259,279.426,273.239,273.234,273.239z M181.874,344.35c-23.564,0-42.667-19.103-42.667-42.667
	c0-23.564,19.103-42.667,42.667-42.667s42.667,19.103,42.667,42.667C224.54,325.248,205.438,344.35,181.874,344.35z"/>
<path style="fill:#2B3B4E;" d="M273.234,273.239H262.33c-1.008-2.851-2.151-5.639-3.446-8.342l7.702-7.702
	c4.379-4.379,4.379-11.476,0-15.855l-24.373-24.371c-4.379-4.379-11.476-4.379-15.855,0l-7.702,7.702
	c-2.703-1.293-5.491-2.438-8.342-3.446v-10.904c0-6.191-5.018-11.211-11.211-11.211H181.87v59.906
	c23.564,0,42.667,19.103,42.667,42.667c0,23.564-19.103,42.667-42.667,42.667v59.906h17.234c6.192,0,11.211-5.02,11.211-11.211
	v-10.904c2.851-1.008,5.639-2.153,8.342-3.446l7.702,7.702c4.379,4.379,11.476,4.379,15.855,0l24.373-24.373
	c4.379-4.379,4.379-11.476,0-15.855l-7.702-7.702c1.293-2.703,2.438-5.491,3.446-8.342h10.904c6.192,0,11.211-5.02,11.211-11.211
	v-34.468C284.446,278.259,279.426,273.239,273.234,273.239z"/>
</svg>