<?xml version="1.0" encoding="iso-8859-1"?>
<!-- Uploaded to: SVG Repo, www.svgrepo.com, Generator: SVG Repo Mixer Tools -->
<svg height="800px" width="800px" version="1.1" id="Layer_1" xmlns="http://www.w3.org/2000/svg" xmlns:xlink="http://www.w3.org/1999/xlink" 
	 viewBox="0 0 512 512" xml:space="preserve">
<circle style="fill:#EFC84A;" cx="256" cy="256" r="256"/>
<path style="opacity:0.1;enable-background:new    ;" d="M511.2,275.317L355.333,119.493l-1.227-1.227
	c-5.76-5.547-13.547-8.907-22.133-8.907H185.84c-20.907,0-37.867,16.907-37.867,37.813v255.52l109.275,109.275
	C391.557,511.323,501.344,407.259,511.2,275.317z"/>
<path style="fill:#E56353;" d="M299.952,141.36c0-17.685,14.341-32.027,32.027-32.027H185.856
	c-20.912,0-37.861,16.949-37.861,37.861v255.472l72.837-37.504l79.12,37.504V188.763l0.005-0.016h-0.005V141.36z"/>
<path style="fill:#D15241;" d="M364.005,141.36c0-17.685-14.336-32.027-32.027-32.027c-17.685,0-32.027,14.336-32.027,32.027v47.387
	h0.005H364V141.36H364.005z"/>
</svg>