<?xml version="1.0" encoding="iso-8859-1"?>
<!-- Uploaded to: SVG Repo, www.svgrepo.com, Generator: SVG Repo Mixer Tools -->
<svg height="800px" width="800px" version="1.1" id="Layer_1" xmlns="http://www.w3.org/2000/svg" xmlns:xlink="http://www.w3.org/1999/xlink" 
	 viewBox="0 0 512 512" xml:space="preserve">
<circle style="fill:#EA8953;" cx="256" cy="256" r="256"/>
<path style="opacity:0.1;enable-background:new    ;" d="M512,256c0-8.336-0.432-16.571-1.211-24.704L397.115,117.621l-0.075,0.053
	c-4.293-5.061-10.619-8.347-17.776-8.347H132.736c-12.928,0-23.403,10.48-23.403,23.403v232.816v13.712
	c0,6.133,2.411,11.675,6.277,15.845l-0.037,0.027l0.325,0.325c0.213,0.219,0.421,0.432,0.64,0.64l114.683,114.683
	C239.381,511.568,247.637,512,256,512C397.387,512,512,397.387,512,256z"/>
<path style="fill:#D5D6DB;" d="M379.264,109.333H132.736c-12.928,0-23.403,10.48-23.403,23.403v246.523
	c0,12.928,10.48,23.403,23.403,23.403h246.523c12.928,0,23.403-10.48,23.403-23.403V132.736
	C402.667,119.813,392.187,109.333,379.264,109.333z"/>
<path style="fill:#EBF0F3;" d="M379.264,109.333H132.736c-12.928,0-23.403,10.48-23.403,23.403v232.816
	c0,12.928,10.48,23.403,23.403,23.403h246.523c12.928,0,23.403-10.48,23.403-23.403V132.736
	C402.667,119.813,392.187,109.333,379.264,109.333z"/>
<circle style="fill:#64798A;" cx="256" cy="249.147" r="30.213"/>
<path style="fill:#3A556A;" d="M256,218.933c-0.587,0-1.157,0.053-1.733,0.085c13.957,0.896,25.013,12.475,25.013,26.661
	c0,14.773-11.973,26.747-26.747,26.747c-14.187,0-25.76-11.051-26.661-25.013c-0.032,0.576-0.085,1.147-0.085,1.733
	c0,16.688,13.525,30.213,30.213,30.213s30.213-13.525,30.213-30.213S272.688,218.933,256,218.933z"/>
<circle style="fill:#64798A;" cx="160.107" cy="160.107" r="30.213"/>
<path style="fill:#3A556A;" d="M160.112,129.899c-0.587,0-1.157,0.053-1.733,0.085c13.963,0.896,25.013,12.475,25.013,26.661
	c0,14.773-11.973,26.747-26.747,26.747c-14.187,0-25.76-11.056-26.661-25.013c-0.032,0.576-0.091,1.147-0.091,1.733
	c0,16.688,13.525,30.213,30.213,30.213s30.213-13.525,30.213-30.213C190.325,143.424,176.8,129.899,160.112,129.899z"/>
<circle style="fill:#64798A;" cx="351.888" cy="338.187" r="30.213"/>
<path style="fill:#3A556A;" d="M351.888,307.968c-0.587,0-1.157,0.053-1.733,0.091c13.963,0.896,25.013,12.475,25.013,26.661
	c0,14.773-11.973,26.747-26.747,26.747c-14.187,0-25.76-11.051-26.661-25.013c-0.032,0.576-0.085,1.147-0.085,1.733
	c0,16.688,13.525,30.213,30.213,30.213c16.688,0,30.213-13.525,30.213-30.213C382.101,321.493,368.576,307.968,351.888,307.968z"/>
</svg>