<?xml version="1.0" encoding="iso-8859-1"?>
<!-- Uploaded to: SVG Repo, www.svgrepo.com, Generator: SVG Repo Mixer Tools -->
<svg height="800px" width="800px" version="1.1" id="Layer_1" xmlns="http://www.w3.org/2000/svg" xmlns:xlink="http://www.w3.org/1999/xlink" 
	 viewBox="0 0 511.997 511.997" xml:space="preserve">
<g>
	<polygon style="fill:#DAE1E5;" points="326.621,150.068 467.862,150.068 467.862,8.826 326.621,8.826 	"/>
	<path style="fill:#E6EEF4;" d="M209.37,308.964h34.436c9.428,0,18.653,1.942,27.154,5.464l67.257-67.257l-99.875-99.875
		l-99.866,99.875l61.246,61.255C202.926,308.743,206.139,308.964,209.37,308.964"/>
	<path style="fill:#FDC794;" d="M505.82,336.912c6.833-5.667,8.218-15.713,3.046-22.925c-11.061-15.404-20.233-19.068-58.659,1.139
		l-76.57,46.804c-23.402,12.438-84.807,8.828-111.298,8.828c0,0,62.517,4.237,37.57-33.006
		c-12.403-18.52-33.81-28.787-56.099-28.787h-34.436c-20.074,0-39.865-6.215-55.896-18.3
		c-37.402-28.195-109.338,27.127-109.338,27.127v158.897h123.586c17.629,0,35.24-1.333,52.665-3.981l115.059-17.496
		c3.928,0,7.742-0.459,11.432-1.28c0.062-0.009,0.115-0.018,0.177-0.026c9.313-1.306,17.823-6.02,24.62-12.526L505.82,336.912z"/>
	<polygon style="fill:#0096E6;" points="0,503.171 44.138,503.171 44.138,291.309 0,291.309 	"/>
	<path style="fill:#F9A671;" d="M176.552,379.585h97.103c4.875,0,8.828-3.952,8.828-8.828s-3.952-8.828-8.828-8.828h-97.103
		c-26.379,0-44.138,11.623-44.138,35.31c0,4.875,3.952,8.828,8.828,8.828s8.828-3.952,8.828-8.828
		C150.069,385.263,158.744,379.585,176.552,379.585z"/>
	<g>
		<path d="M194.651,240.928c-3.452-3.452-9.039-3.452-12.482,0c-3.452,3.452-3.452,9.039,0,12.482c3.443,3.452,9.031,3.452,12.482,0
			C198.103,249.968,198.103,244.38,194.651,240.928"/>
		<path d="M244.587,240.928c-3.452-3.452-9.039-3.452-12.482,0c-3.452,3.452-3.452,9.039,0,12.482c3.443,3.452,9.031,3.452,12.482,0
			C248.038,249.968,248.038,244.38,244.587,240.928"/>
		<path d="M294.524,240.928c-3.452-3.452-9.039-3.452-12.482,0c-3.452,3.452-3.452,9.039,0,12.482c3.443,3.452,9.031,3.452,12.482,0
			C297.975,249.968,297.975,244.38,294.524,240.928"/>
		<path d="M370.759,44.136c0-4.873-3.955-8.828-8.828-8.828s-8.828,3.955-8.828,8.828s3.955,8.828,8.828,8.828
			S370.759,49.009,370.759,44.136"/>
		<path d="M441.379,44.136c0-4.873-3.955-8.828-8.828-8.828s-8.828,3.955-8.828,8.828s3.955,8.828,8.828,8.828
			S441.379,49.009,441.379,44.136"/>
		<path d="M370.759,114.757c0-4.873-3.955-8.828-8.828-8.828s-8.828,3.955-8.828,8.828s3.955,8.828,8.828,8.828
			S370.759,119.63,370.759,114.757"/>
		<path d="M406.069,79.447c0-4.873-3.955-8.828-8.828-8.828c-4.873,0-8.828,3.955-8.828,8.828c0,4.873,3.955,8.828,8.828,8.828
			C402.114,88.274,406.069,84.32,406.069,79.447"/>
		<path d="M441.379,114.757c0-4.873-3.955-8.828-8.828-8.828s-8.828,3.955-8.828,8.828s3.955,8.828,8.828,8.828
			S441.379,119.63,441.379,114.757"/>
	</g>
</g>
</svg>