<!DOCTYPE svg PUBLIC "-//W3C//DTD SVG 1.1//EN" "http://www.w3.org/Graphics/SVG/1.1/DTD/svg11.dtd">
<!-- Uploaded to: SVG Repo, www.svgrepo.com, Transformed by: SVG Repo Mixer Tools -->
<svg version="1.1" id="Uploaded to svgrepo.com" xmlns="http://www.w3.org/2000/svg" xmlns:xlink="http://www.w3.org/1999/xlink" width="800px" height="800px" viewBox="0 0 32 32" xml:space="preserve" fill="#000000">
<g id="SVGRepo_bgCarrier" stroke-width="0"/>
<g id="SVGRepo_tracerCarrier" stroke-linecap="round" stroke-linejoin="round"/>
<g id="SVGRepo_iconCarrier"> <style type="text/css"> .pictogram_een{fill:#fff;} .pictogram_vier{fill:#263a7a;} .pictogram_vijf{fill:#71e2f0;} .pictogram_zes{fill:#263a7a;} .st0{fill:#F8AD89;} .st1{fill:#F27261;} .st2{fill:none;} </style> <g> <circle class="pictogram_vijf" cx="16" cy="16" r="16"/> <path class="pictogram_een" d="M21.962,13.031l1.492-2.381l2.381,1.492l-1.492,2.381L21.962,13.031z M28.216,13.634l-1.492,2.381 l2.381,1.492l1.492-2.381L28.216,13.634z M20.466,12.094l-1.422,2.425l1.424,0.893l1.492-2.381L20.466,12.094z M22.851,16.904 l2.381,1.492l1.492-2.381l-2.381-1.492L22.851,16.904z M20.469,15.412l-1.492,2.381l2.381,1.492l1.492-2.381L20.469,15.412z M23.739,20.778l2.381,1.492l1.492-2.381l-2.381-1.492L23.739,20.778z M10.038,13.031L8.546,10.65l-2.381,1.492l1.492,2.381 L10.038,13.031z M1.403,15.126l1.492,2.381l2.381-1.492l-1.492-2.381L1.403,15.126z M10.038,13.031l1.492,2.381l1.424-0.893 l-1.422-2.425L10.038,13.031z M7.657,14.523l-2.381,1.492l1.492,2.381l2.381-1.492L7.657,14.523z M9.149,16.904l1.492,2.381 l2.381-1.492l-1.492-2.381L9.149,16.904z M6.768,18.396l-2.381,1.492l1.492,2.381l2.381-1.492L6.768,18.396z"/> <path class="pictogram_zes" d="M21.679,10.025c0.073-0.125,0.12-0.257,0.153-0.391l1.621,1.016l-1.492,2.381l-1.495-0.937 L21.679,10.025z M26.724,16.015l1.492-2.381l-2.381-1.492l-1.492,2.381L26.724,16.015z M21.962,13.031l-1.492,2.381l2.381,1.492 l1.492-2.381L21.962,13.031z M25.232,18.396l2.381,1.492l1.492-2.381l-2.381-1.492L25.232,18.396z M22.851,16.904l-1.492,2.381 l2.381,1.492l1.492-2.381L22.851,16.904z M10.321,10.025c-0.073-0.125-0.12-0.257-0.153-0.391L8.546,10.65l1.492,2.381l1.495-0.937 L10.321,10.025z M7.657,14.523l-1.492-2.381l-2.381,1.492l1.492,2.381L7.657,14.523z M7.657,14.523l1.492,2.381l2.381-1.492 l-1.492-2.381L7.657,14.523z M5.276,16.015l-2.381,1.492l1.492,2.381l2.381-1.492L5.276,16.015z M6.768,18.396l1.492,2.381 l2.381-1.492l-1.492-2.381L6.768,18.396z M17.987,17.173l0.99,0.62l1.492-2.381l-1.413-0.885c-0.423,0.728-0.864,1.485-1.306,2.243 C17.83,16.905,17.908,17.038,17.987,17.173z M11.531,15.412l1.492,2.381l0.99-0.62c0.079-0.135,0.157-0.268,0.236-0.403 c-0.442-0.758-0.882-1.515-1.306-2.243L11.531,15.412z"/> <path class="pictogram_vier" d="M19.299,8.231c-0.207,0.217-3.148,5.292-3.299,5.551c-0.152-0.259-3.093-5.334-3.299-5.551 c-1.211-1.273-3.243,0.321-2.359,1.828c0.637,1.086,2.28,3.915,3.908,6.71c-1.263,2.155-2.464,4.204-3.115,5.315 c-0.974,1.661,1.605,3.193,2.588,1.517c0.114-0.147,1.063-1.755,2.278-3.832c1.215,2.077,2.164,3.684,2.278,3.832 c0.983,1.677,3.562,0.144,2.588-1.517c-0.651-1.111-1.852-3.159-3.115-5.314c1.628-2.794,3.271-5.624,3.908-6.71 C22.542,8.552,20.511,6.958,19.299,8.231z"/> </g> </g>
</svg>