<?xml version="1.0" encoding="iso-8859-1"?>
<!-- Uploaded to: SVG Repo, www.svgrepo.com, Generator: SVG Repo Mixer Tools -->
<svg height="800px" width="800px" version="1.1" id="Layer_1" xmlns="http://www.w3.org/2000/svg" xmlns:xlink="http://www.w3.org/1999/xlink" 
	 viewBox="0 0 512 512" xml:space="preserve">
<circle style="fill:#324A5E;" cx="256" cy="256" r="256"/>
<path style="fill:#2B3B4E;" d="M315.358,505.068c96.471-22.906,171.803-100.395,191.552-198.051L360.503,160.983l-34.397-6.037
	l-33.904,9.821l89.645,90.167l2.331,10.333l-64.876,81.701L155.691,183.472l-58.003,72.899l-1.943,15.805l79.06,79.701l-7.732,3.367
	L315.358,505.068z"/>
<path style="fill:#FFFFFF;" d="M384.54,193.584c-17.189-32.327-45.939-56.027-80.951-66.731l-11.385,37.916
	c24.886,7.609,45.111,24.454,57.328,47.43c12.217,22.976,14.755,49.335,7.147,74.221c-15.705,51.371-70.273,80.386-121.647,64.683
	c-43.092-13.176-70.437-53.698-68.868-96.737l23.273,30.708l27.477-20.825l-61.218-80.774l-80.774,61.23l20.828,27.476
	l31.034-23.523c-4.22,62.123,34.607,121.396,96.656,140.366c13.305,4.068,26.758,6.003,40,6.003
	c58.689-0.002,113.13-38.036,131.158-97.009C405.299,262.997,401.729,225.913,384.54,193.584z"/>
<path style="fill:#E6F3FF;" d="M384.54,193.584c-17.189-32.327-45.939-56.027-80.951-66.731l-11.385,37.916
	c24.886,7.609,45.111,24.454,57.328,47.43c12.217,22.976,14.755,49.335,7.147,74.221c-12.459,40.753-49.38,67.408-89.759,68.858
	v39.674c57.347-1.474,110.004-39.136,127.676-96.94C405.299,262.997,401.729,225.913,384.54,193.584z"/>
</svg>