<?xml version="1.0" encoding="iso-8859-1"?>
<!-- Uploaded to: SVG Repo, www.svgrepo.com, Generator: SVG Repo Mixer Tools -->
<svg height="800px" width="800px" version="1.1" id="Layer_1" xmlns="http://www.w3.org/2000/svg" xmlns:xlink="http://www.w3.org/1999/xlink" 
	 viewBox="0 0 512 512" xml:space="preserve">
<circle style="fill:#334D5C;" cx="256" cy="256" r="256"/>
<path style="opacity:0.1;enable-background:new    ;" d="M512,256c0-14.08-1.184-27.883-3.371-41.349l-86.411-86.405L89.781,254.624
	l76.704,42.917l11.643,72.304L313.68,505.397C427.269,479.227,512,377.541,512,256z"/>
<polygon style="fill:#D5D6DB;" points="178.123,369.845 243.04,340.379 166.48,297.541 "/>
<g>
	<polygon style="fill:#EBF0F3;" points="422.219,128.245 89.781,254.624 166.48,297.541 166.48,297.541 	"/>
	<polygon style="fill:#EBF0F3;" points="422.219,128.245 243.04,340.379 243.04,340.379 320.565,383.755 	"/>
</g>
<polygon style="fill:#E1E6E9;" points="422.219,128.245 166.48,297.541 166.48,297.541 243.04,340.379 243.04,340.379 "/>
</svg>