<?xml version="1.0" encoding="iso-8859-1"?>
<!-- Uploaded to: SVG Repo, www.svgrepo.com, Generator: SVG Repo Mixer Tools -->
<svg height="800px" width="800px" version="1.1" id="Layer_1" xmlns="http://www.w3.org/2000/svg" xmlns:xlink="http://www.w3.org/1999/xlink" 
	 viewBox="0 0 511.998 511.998" xml:space="preserve">
<circle style="fill:#21D0C3;" cx="255.999" cy="255.999" r="255.999"/>
<path style="fill:#FFFFFF;" d="M429.64,90.013L132.339,192.316l90.562,18.065L429.64,90.013z"/>
<path style="fill:#FFD95E;" d="M132.337,192.316l90.56,18.065l60.104-34.994L132.337,192.316z"/>
<path style="fill:#ECF0F1;" d="M222.899,210.379l14.028,106.75L429.638,90.013L222.899,210.379z"/>
<path style="fill:#EDB937;" d="M222.899,210.379l14.03,106.75l86.132-101.508l-14.867-24.227l-29.459,24.591l4.269-40.598h-0.002
	l-60.104,34.994h0.002V210.379z"/>
<path style="fill:#FECE0E;" d="M429.64,90.013L255.42,235.449l-18.492,81.681L429.64,90.013z"/>
<path style="fill:#FAD24D;" d="M278.734,215.984l-23.316,19.464l-18.492,81.681l86.132-101.508l-14.867-24.227l-29.459,24.591
	v-0.002L278.734,215.984z"/>
<path style="fill:#FFFFFF;" d="M370.374,292.726l59.264-202.713l-174.22,145.436L370.374,292.726z"/>
<path style="fill:#FFD95E;" d="M278.604,215.984l-23.316,19.464l114.958,57.278l-62.183-101.331l-29.456,24.591v-0.002
	L278.604,215.984L278.604,215.984z"/>
<path style="fill:#ECF0F1;" d="M70.961,347.199l124.148-117.28l5.102,7L70.961,347.199z M209.513,429.283l113.071-125.337
	l7.562,3.497L209.513,429.283z M118.94,416.985l99.394-96.01l5.41,4.769l-104.807,91.24h0.002V416.985z"/>
</svg>