<?xml version="1.0" encoding="iso-8859-1"?>
<!-- Uploaded to: SVG Repo, www.svgrepo.com, Generator: SVG Repo Mixer Tools -->
<svg version="1.1" id="Layer_1" xmlns="http://www.w3.org/2000/svg" xmlns:xlink="http://www.w3.org/1999/xlink" 
	 viewBox="0 0 512.002 512.002" xml:space="preserve">
<circle style="fill:#FF6262;" cx="256.001" cy="256" r="256"/>
<g>
	<polygon style="fill:#FF314F;" points="189.896,107.746 241.623,159.473 161.452,159.473 161.452,118.662 168.657,107.746 	"/>
	<path style="fill:#FF314F;" d="M512.001,256c0-4.118-0.107-8.211-0.3-12.279L389.005,121.025
		c0.002-1.372-246.782,277.197-246.782,277.197l8.726,8.726c-11.166,4.344-17.942,6.968-17.942,6.942l96.785,96.785
		c8.618,0.876,17.361,1.326,26.21,1.326C397.385,512,512.001,397.384,512.001,256z"/>
</g>
<rect x="189.889" y="121.018" style="fill:#FFAD9E;" width="199.111" height="292.857"/>
<rect x="161.445" y="121.018" style="fill:#FFD0CA;" width="199.111" height="292.857"/>
<rect x="133" y="121.018" style="fill:#FFFFFF;" width="199.111" height="292.857"/>
<rect x="234.159" y="121.018" style="fill:#E8E8E8;" width="97.952" height="292.857"/>
<path style="fill:#366695;" d="M184.724,121.025c0-4.991-4.06-9.338-9.051-9.338s-9.051,4.06-9.051,9.051v56.092
	c0,4.991,4.06,9.051,9.051,9.051s9.051-4.06,9.051-9.051v-15.229c0-2.857,2.315-5.172,5.172-5.172c2.857,0,5.172,2.315,5.172,5.172
	v15.229c0,10.693-8.701,19.394-19.394,19.394s-19.394-8.701-19.394-19.394v-56.092c0-10.693,8.701-19.394,19.394-19.394
	s19.394,8.988,19.394,19.682H184.724z"/>
</svg>