<svg height="266.66666" viewBox="0 0 266.66666 266.66666" width="266.66666" xmlns="http://www.w3.org/2000/svg" xmlns:xlink="http://www.w3.org/1999/xlink"><image height="266.66666" preserveAspectRatio="none" transform="matrix(.49293361 -.87006693 .87006693 .49293361 0 0)" width="266.66666" x="-120.92234" y="-227.61238"/>
<g fill="none" stroke-width="6.670866" ><path d="m135.58812 78.767378c17.27244 41.321532 26.11456 81.261052 9.01917 116.948512" stroke="#fffffd"/><g stroke="#fff"><path d="m167.1552 124.46448 83.5776-21.64599"/><path d="m172.5667 137.99323h76.66291"/><path d="m166.85456 151.82262 84.78016 23.14919"/></g>
<path d="m143.10409 96.50507c-36.35037 11.97545-17.73859 80.20949 5.0228 82.60899" stroke="#fffffd"/></g><path d="m125.19072 160.70036a7.1863332 13.803093 0 0 1 -7.17994 13.80309 7.1863332 13.803093 0 0 1 -7.19271-13.77854 7.1863332 13.803093 0 0 1 7.16715-13.82759 7.1863332 13.803093 0 0 1 7.20545 13.75395l-7.18628.0491z" fill="#fffffd" fill-rule="evenodd" stroke="#fffffd" stroke-linecap="round" stroke-width="5.79259" transform="matrix(.98257803 -.18585049 .18585049 .98257803 0 0)"/>
<path d="m150.62632 67.409791-122.763812 90.507409 132.083612 40.27049" fill="none" stroke="#fff" stroke-width="6.670866"/></svg>